<svg width="164" height="21" viewBox="0 0 164 21" fill="none" xmlns="http://www.w3.org/2000/svg">
<path d="M19.4854 9.77907C18.732 7.15792 16.0389 8.09915 14.3759 6.75546C12.8056 5.48663 13.4886 3.5809 12.3505 2.14815C10.7099 0.08306 7.14975 0.912996 6.68841 3.55951C6.4189 5.10562 7.28118 6.62884 8.75083 7.15716C9.4821 7.42005 10.2797 7.30954 11 7.60412C12.4403 8.19313 13.4755 9.76724 13.1835 11.334C12.9492 12.591 11.942 13.6925 10.7189 14.0495C9.97833 14.2656 9.19131 14.2009 8.46968 14.519C7.04841 15.1456 6.37012 16.7836 6.77269 18.2603C7.50988 20.9645 11.0627 21.3812 12.5669 19.1083C13.4203 17.8186 12.9355 16.2251 14.1187 15.0353C15.666 13.4794 18.4989 14.4534 19.4143 12.0406C19.5353 11.7217 19.5644 11.3894 19.5731 11.0513C19.5838 10.6324 19.6022 10.1854 19.4854 9.77907Z" fill="black"/>
<path d="M6.27136 9.77907C5.71857 7.85592 3.25744 7.05736 1.58165 8.01684C0.281047 8.7615 -0.264807 10.3282 0.146093 11.758C0.782337 13.9712 3.65949 14.7081 5.35257 13.2381C6.29998 12.4156 6.61617 10.9787 6.27136 9.77907Z" fill="black"/>
<path d="M30.4656 20.9998V6.83161H33.0321L33.1693 8.12319C33.5872 7.61439 34.064 7.24257 34.5995 7.00773C35.1481 6.7729 35.7489 6.65549 36.4019 6.65549C37.4207 6.65549 38.2632 6.89032 38.9293 7.35998C39.5954 7.82965 40.0918 8.46891 40.4183 9.27778C40.7579 10.0736 40.9277 10.9673 40.9277 11.9588C40.9277 12.9764 40.7514 13.8896 40.3987 14.6985C40.0591 15.4943 39.5432 16.1271 38.8509 16.5967C38.1587 17.0534 37.2966 17.2817 36.2648 17.2817C35.8207 17.2817 35.4028 17.2295 35.0109 17.1251C34.6191 17.0207 34.273 16.8837 33.9725 16.7141C33.6721 16.5315 33.4174 16.3293 33.2085 16.1075V20.9998H30.4656ZM35.7946 14.8159C36.4085 14.8159 36.8917 14.6789 37.2444 14.405C37.5971 14.131 37.8452 13.7853 37.9889 13.3678C38.1326 12.9373 38.2044 12.4937 38.2044 12.0371C38.2044 11.5413 38.126 11.0716 37.9693 10.6281C37.8126 10.1845 37.5513 9.83225 37.1856 9.57132C36.833 9.29735 36.3497 9.16037 35.7358 9.16037C35.1872 9.16037 34.7236 9.29735 34.3448 9.57132C33.966 9.83225 33.6787 10.178 33.4827 10.6085C33.2868 11.039 33.1889 11.5022 33.1889 11.9979C33.1889 12.4937 33.2803 12.9568 33.4632 13.3874C33.6591 13.8179 33.9464 14.1636 34.3252 14.4245C34.717 14.6855 35.2068 14.8159 35.7946 14.8159Z" fill="black"/>
<path d="M45.9633 17.2817C45.4931 17.2817 45.0359 17.223 44.5919 17.1055C44.1608 16.9751 43.7755 16.7794 43.4359 16.5185C43.0963 16.2575 42.8286 15.9314 42.6327 15.54C42.4367 15.1486 42.3388 14.692 42.3388 14.1701C42.3388 13.4656 42.4825 12.9046 42.7698 12.4872C43.0572 12.0566 43.4425 11.7305 43.9257 11.5087C44.409 11.2869 44.9641 11.1369 45.591 11.0586C46.2311 10.9803 46.8906 10.9412 47.5698 10.9412H49.0588C49.0588 10.5628 48.987 10.2302 48.8433 9.94314C48.7127 9.64308 48.5103 9.41477 48.236 9.25821C47.9617 9.08861 47.609 9.00381 47.178 9.00381C46.9037 9.00381 46.636 9.04295 46.3747 9.12123C46.1266 9.18646 45.9176 9.28431 45.7478 9.41477C45.578 9.54523 45.467 9.71483 45.4147 9.92357H42.6327C42.711 9.34954 42.8939 8.8603 43.1812 8.45587C43.4686 8.03839 43.8278 7.69919 44.2588 7.43826C44.6898 7.17734 45.16 6.98816 45.6694 6.87075C46.1919 6.74029 46.7274 6.67505 47.276 6.67505C48.778 6.67505 49.8882 7.10558 50.6066 7.96663C51.325 8.81464 51.6842 10.0214 51.6842 11.587V17.1447H49.2156L49.1764 15.814C48.8498 16.2706 48.4776 16.6033 48.0596 16.812C47.6547 17.0207 47.2629 17.1512 46.8841 17.2034C46.5053 17.2556 46.1984 17.2817 45.9633 17.2817ZM46.5902 15.1095C47.0474 15.1095 47.4653 15.0181 47.8441 14.8355C48.2229 14.6528 48.5233 14.405 48.7454 14.0919C48.9674 13.7787 49.0784 13.4265 49.0784 13.0351V12.7807H47.1976C46.9233 12.7807 46.6555 12.7937 46.3943 12.8198C46.1462 12.8459 45.9176 12.8981 45.7086 12.9764C45.5127 13.0416 45.3559 13.1525 45.2384 13.3091C45.1208 13.4656 45.0621 13.6744 45.0621 13.9353C45.0621 14.1962 45.1274 14.418 45.258 14.6007C45.4017 14.7703 45.591 14.9007 45.8262 14.992C46.0613 15.0703 46.316 15.1095 46.5902 15.1095Z" fill="black"/>
<path d="M57.8627 17.2817C57.3794 17.2817 56.8831 17.2295 56.3737 17.1251C55.8643 17.0207 55.3941 16.8446 54.9631 16.5967C54.532 16.3358 54.1663 15.9901 53.8659 15.5596C53.5655 15.116 53.3696 14.568 53.2782 13.9157H56.0602C56.1386 14.1506 56.2757 14.3528 56.4716 14.5224C56.6806 14.692 56.9157 14.8159 57.177 14.8942C57.4512 14.9725 57.7255 15.0116 57.9998 15.0116C58.1827 15.0116 58.3655 14.9986 58.5484 14.9725C58.7313 14.9464 58.901 14.8942 59.0578 14.8159C59.2145 14.7376 59.3386 14.6398 59.43 14.5224C59.5215 14.3919 59.5672 14.2288 59.5672 14.0331C59.5672 13.8244 59.5019 13.6613 59.3713 13.5439C59.2406 13.4265 59.0578 13.3352 58.8227 13.2699C58.5876 13.1917 58.3198 13.1199 58.0194 13.0547C57.4839 12.9373 56.9092 12.8068 56.2953 12.6633C55.6814 12.5198 55.1524 12.311 54.7084 12.0371C54.5255 11.9066 54.3622 11.7631 54.2186 11.6065C54.0749 11.45 53.9573 11.2739 53.8659 11.0782C53.7745 10.8825 53.7026 10.6803 53.6504 10.4715C53.5982 10.2497 53.572 10.0149 53.572 9.76702C53.572 9.20603 53.6896 8.72984 53.9247 8.33845C54.1728 7.93402 54.4994 7.60786 54.9043 7.35998C55.3092 7.1121 55.7598 6.93598 56.2561 6.83161C56.7525 6.71419 57.2619 6.65549 57.7843 6.65549C58.4896 6.65549 59.1427 6.7729 59.7435 7.00773C60.3443 7.22952 60.8407 7.58177 61.2325 8.06448C61.6243 8.53415 61.866 9.14732 61.9574 9.904H59.3321C59.2798 9.61699 59.1035 9.38868 58.8031 9.21907C58.5027 9.03643 58.1304 8.9451 57.6863 8.9451C57.5296 8.9451 57.3598 8.95815 57.177 8.98424C57.0072 9.01033 56.8504 9.056 56.7067 9.12123C56.5631 9.18646 56.4455 9.27778 56.3541 9.3952C56.2627 9.49957 56.2169 9.64308 56.2169 9.82573C56.2169 9.96923 56.2561 10.0997 56.3345 10.2171C56.4259 10.3345 56.55 10.4324 56.7067 10.5107C56.8765 10.5889 57.079 10.6607 57.3141 10.7259C57.7582 10.8303 58.2023 10.9281 58.6464 11.0195C59.1035 11.0977 59.5084 11.1825 59.8611 11.2739C60.2921 11.3652 60.6839 11.5152 61.0366 11.724C61.4023 11.9327 61.6962 12.2197 61.9182 12.585C62.1533 12.9373 62.2709 13.4004 62.2709 13.9744C62.2709 14.6267 62.1403 15.1682 61.879 15.5987C61.6178 16.0162 61.2652 16.3489 60.8211 16.5967C60.39 16.8446 59.9133 17.0207 59.3909 17.1251C58.8815 17.2295 58.3721 17.2817 57.8627 17.2817Z" fill="black"/>
<path d="M67.9074 17.2817C67.4241 17.2817 66.9278 17.2295 66.4184 17.1251C65.909 17.0207 65.4388 16.8446 65.0078 16.5967C64.5768 16.3358 64.211 15.9901 63.9106 15.5596C63.6102 15.116 63.4143 14.568 63.3229 13.9157H66.1049C66.1833 14.1506 66.3204 14.3528 66.5164 14.5224C66.7253 14.692 66.9604 14.8159 67.2217 14.8942C67.496 14.9725 67.7703 15.0116 68.0445 15.0116C68.2274 15.0116 68.4103 14.9986 68.5931 14.9725C68.776 14.9464 68.9458 14.8942 69.1025 14.8159C69.2592 14.7376 69.3833 14.6398 69.4748 14.5224C69.5662 14.3919 69.6119 14.2288 69.6119 14.0331C69.6119 13.8244 69.5466 13.6613 69.416 13.5439C69.2854 13.4265 69.1025 13.3352 68.8674 13.2699C68.6323 13.1917 68.3645 13.1199 68.0641 13.0547C67.5286 12.9373 66.9539 12.8068 66.34 12.6633C65.7262 12.5198 65.1972 12.311 64.7531 12.0371C64.5702 11.9066 64.407 11.7631 64.2633 11.6065C64.1196 11.45 64.0021 11.2739 63.9106 11.0782C63.8192 10.8825 63.7474 10.6803 63.6951 10.4715C63.6429 10.2497 63.6167 10.0149 63.6167 9.76702C63.6167 9.20603 63.7343 8.72984 63.9694 8.33845C64.2176 7.93402 64.5441 7.60786 64.949 7.35998C65.3539 7.1121 65.8045 6.93598 66.3009 6.83161C66.7972 6.71419 67.3066 6.65549 67.829 6.65549C68.5343 6.65549 69.1874 6.7729 69.7882 7.00773C70.389 7.22952 70.8854 7.58177 71.2772 8.06448C71.6691 8.53415 71.9107 9.14732 72.0021 9.904H69.3768C69.3246 9.61699 69.1482 9.38868 68.8478 9.21907C68.5474 9.03643 68.1752 8.9451 67.7311 8.9451C67.5743 8.9451 67.4045 8.95815 67.2217 8.98424C67.0519 9.01033 66.8951 9.056 66.7515 9.12123C66.6078 9.18646 66.4902 9.27778 66.3988 9.3952C66.3074 9.49957 66.2617 9.64308 66.2617 9.82573C66.2617 9.96923 66.3009 10.0997 66.3792 10.2171C66.4706 10.3345 66.5947 10.4324 66.7515 10.5107C66.9213 10.5889 67.1237 10.6607 67.3588 10.7259C67.8029 10.8303 68.247 10.9281 68.6911 11.0195C69.1482 11.0977 69.5531 11.1825 69.9058 11.2739C70.3368 11.3652 70.7286 11.5152 71.0813 11.724C71.447 11.9327 71.7409 12.2197 71.9629 12.585C72.198 12.9373 72.3156 13.4004 72.3156 13.9744C72.3156 14.6267 72.185 15.1682 71.9238 15.5987C71.6625 16.0162 71.3099 16.3489 70.8658 16.5967C70.4348 16.8446 69.958 17.0207 69.4356 17.1251C68.9262 17.2295 68.4168 17.2817 67.9074 17.2817Z" fill="black"/>
<path d="M78.6378 17.2817C77.5537 17.2817 76.6329 17.0664 75.8754 16.6359C75.1178 16.2053 74.5366 15.5987 74.1317 14.8159C73.7268 14.0201 73.5243 13.0938 73.5243 12.0371C73.5243 10.9673 73.7333 10.0345 74.1513 9.23864C74.5692 8.42978 75.157 7.79703 75.9145 7.34041C76.6852 6.88379 77.5929 6.65549 78.6378 6.65549C79.4215 6.65549 80.1072 6.78595 80.695 7.04687C81.2958 7.3078 81.7987 7.67309 82.2036 8.14276C82.6215 8.61242 82.9285 9.16037 83.1244 9.78659C83.3334 10.3998 83.4313 11.0651 83.4183 11.7827C83.4183 11.9653 83.4117 12.1414 83.3987 12.311C83.3856 12.4806 83.3595 12.6502 83.3203 12.8198H76.2476C76.2868 13.2112 76.3978 13.57 76.5807 13.8962C76.7635 14.2223 77.0182 14.4832 77.3448 14.6789C77.6844 14.8616 78.1023 14.9529 78.5987 14.9529C78.9252 14.9529 79.2256 14.9203 79.4999 14.8551C79.7742 14.7768 80.0093 14.6594 80.2052 14.5028C80.4011 14.3463 80.5383 14.1636 80.6166 13.9549H83.3203C83.1505 14.7246 82.8305 15.3573 82.3603 15.8531C81.9032 16.3489 81.3481 16.7141 80.695 16.949C80.0419 17.1708 79.3562 17.2817 78.6378 17.2817ZM76.3064 10.902H80.793C80.7799 10.5498 80.6885 10.2236 80.5187 9.92357C80.3619 9.61046 80.1203 9.36258 79.7938 9.17994C79.4803 8.98424 79.0754 8.88639 78.5791 8.88639C78.0827 8.88639 77.6648 8.98424 77.3252 9.17994C76.9986 9.37563 76.7505 9.63003 76.5807 9.94314C76.4239 10.2432 76.3325 10.5628 76.3064 10.902Z" fill="black"/>
<path d="M85.1854 20.9998V6.83161H87.7519L87.8891 8.12319C88.307 7.61439 88.7838 7.24257 89.3193 7.00773C89.8679 6.7729 90.4687 6.65549 91.1218 6.65549C92.1405 6.65549 92.983 6.89032 93.6491 7.35998C94.3153 7.82965 94.8116 8.46891 95.1381 9.27778C95.4777 10.0736 95.6475 10.9673 95.6475 11.9588C95.6475 12.9764 95.4712 13.8896 95.1185 14.6985C94.7789 15.4943 94.263 16.1271 93.5708 16.5967C92.8785 17.0534 92.0165 17.2817 90.9846 17.2817C90.5405 17.2817 90.1226 17.2295 89.7307 17.1251C89.3389 17.0207 88.9928 16.8837 88.6924 16.7141C88.3919 16.5315 88.1372 16.3293 87.9283 16.1075V20.9998H85.1854ZM90.5144 14.8159C91.1283 14.8159 91.6116 14.6789 91.9642 14.405C92.3169 14.131 92.565 13.7853 92.7087 13.3678C92.8524 12.9373 92.9242 12.4937 92.9242 12.0371C92.9242 11.5413 92.8459 11.0716 92.6891 10.6281C92.5324 10.1845 92.2712 9.83225 91.9054 9.57132C91.5528 9.29735 91.0695 9.16037 90.4556 9.16037C89.9071 9.16037 89.4434 9.29735 89.0646 9.57132C88.6858 9.83225 88.3985 10.178 88.2026 10.6085C88.0066 11.039 87.9087 11.5022 87.9087 11.9979C87.9087 12.4937 88.0001 12.9568 88.183 13.3874C88.3789 13.8179 88.6662 14.1636 89.045 14.4245C89.4368 14.6855 89.9266 14.8159 90.5144 14.8159Z" fill="black"/>
<path d="M102.231 17.2817C101.186 17.2817 100.272 17.0729 99.488 16.6554C98.7043 16.2249 98.097 15.6183 97.6659 14.8355C97.2349 14.0397 97.0194 13.1003 97.0194 12.0175C97.0194 10.9086 97.2349 9.95619 97.6659 9.16037C98.11 8.3515 98.7239 7.7318 99.5076 7.30127C100.291 6.87075 101.192 6.65549 102.211 6.65549C103.256 6.65549 104.164 6.87727 104.935 7.32084C105.705 7.76442 106.306 8.38411 106.737 9.17994C107.168 9.97576 107.384 10.9281 107.384 12.0371C107.384 13.1199 107.168 14.0592 106.737 14.8551C106.319 15.6378 105.725 16.238 104.954 16.6554C104.197 17.0729 103.289 17.2817 102.231 17.2817ZM102.192 14.7768C102.793 14.7768 103.276 14.6463 103.641 14.3854C104.007 14.1245 104.268 13.7853 104.425 13.3678C104.595 12.9373 104.68 12.4872 104.68 12.0175C104.68 11.5478 104.595 11.0977 104.425 10.6672C104.268 10.2367 104.007 9.88443 103.641 9.61046C103.289 9.32344 102.806 9.17994 102.192 9.17994C101.604 9.17994 101.127 9.32344 100.761 9.61046C100.396 9.88443 100.128 10.2367 99.9582 10.6672C99.8015 11.0977 99.7231 11.5478 99.7231 12.0175C99.7231 12.5002 99.8015 12.9503 99.9582 13.3678C100.128 13.7853 100.396 14.1245 100.761 14.3854C101.127 14.6463 101.604 14.7768 102.192 14.7768Z" fill="black"/>
<path d="M109.14 17.1447V6.83161H111.608L111.785 8.06448C112.046 7.67309 112.34 7.37955 112.666 7.18386C112.993 6.97512 113.332 6.83813 113.685 6.7729C114.038 6.69462 114.397 6.65549 114.763 6.65549C114.932 6.65549 115.089 6.66201 115.233 6.67505C115.376 6.67505 115.481 6.67505 115.546 6.67505V9.31692H114.9C114.286 9.31692 113.75 9.42129 113.293 9.63003C112.836 9.83877 112.483 10.1649 112.235 10.6085C112 11.0521 111.883 11.6196 111.883 12.311V17.1447H109.14Z" fill="black"/>
<path d="M122.107 17.1447C121.245 17.1447 120.52 17.0403 119.932 16.8316C119.357 16.6228 118.92 16.2706 118.619 15.7748C118.332 15.266 118.188 14.5746 118.188 13.7005V9.27778H116.66V6.83161H118.188V4.07233H120.931V6.83161H123.184V9.27778H120.931V13.3091C120.931 13.7396 121.009 14.0788 121.166 14.3267C121.323 14.5746 121.676 14.6985 122.224 14.6985H123.086V17.1447H122.107Z" fill="black"/>
<path d="M126.284 17.3991C125.814 17.3991 125.415 17.2556 125.089 16.9686C124.762 16.6815 124.599 16.2706 124.599 15.7357C124.599 15.1877 124.762 14.7572 125.089 14.4441C125.428 14.131 125.827 13.9744 126.284 13.9744C126.741 13.9744 127.133 14.131 127.459 14.4441C127.786 14.7442 127.949 15.1682 127.949 15.7161C127.949 16.2641 127.786 16.6815 127.459 16.9686C127.133 17.2556 126.741 17.3991 126.284 17.3991Z" fill="black"/>
<path d="M134.361 17.2817C133.316 17.2817 132.447 17.0468 131.755 16.5772C131.076 16.0945 130.566 15.4552 130.227 14.6594C129.887 13.8505 129.717 12.9568 129.717 11.9784C129.717 10.9477 129.9 10.0345 130.266 9.23864C130.632 8.42978 131.174 7.79703 131.892 7.34041C132.61 6.88379 133.505 6.65549 134.576 6.65549C134.942 6.65549 135.301 6.70115 135.654 6.79247C136.019 6.87075 136.353 6.99469 136.653 7.16429C136.966 7.32084 137.234 7.52958 137.456 7.79051V3.28955H140.199V17.1447H137.535L137.495 15.9901C137.26 16.2901 136.973 16.538 136.633 16.7337C136.307 16.9164 135.954 17.0534 135.575 17.1447C135.197 17.236 134.792 17.2817 134.361 17.2817ZM134.909 14.8159C135.497 14.8159 135.974 14.6789 136.339 14.405C136.718 14.131 136.999 13.7787 137.182 13.3482C137.365 12.9177 137.456 12.4545 137.456 11.9588C137.456 11.45 137.365 10.9868 137.182 10.5694C137.012 10.1388 136.738 9.79963 136.359 9.55175C135.993 9.29083 135.51 9.16037 134.909 9.16037C134.308 9.16037 133.825 9.29735 133.459 9.57132C133.094 9.84529 132.832 10.2041 132.676 10.6476C132.532 11.0782 132.46 11.5413 132.46 12.0371C132.46 12.4024 132.499 12.7546 132.578 13.0938C132.669 13.42 132.813 13.7135 133.009 13.9744C133.205 14.2354 133.459 14.4441 133.773 14.6007C134.086 14.7442 134.465 14.8159 134.909 14.8159Z" fill="black"/>
<path d="M147.076 17.2817C145.992 17.2817 145.071 17.0664 144.313 16.6359C143.556 16.2053 142.975 15.5987 142.57 14.8159C142.165 14.0201 141.962 13.0938 141.962 12.0371C141.962 10.9673 142.171 10.0345 142.589 9.23864C143.007 8.42978 143.595 7.79703 144.353 7.34041C145.123 6.88379 146.031 6.65549 147.076 6.65549C147.86 6.65549 148.545 6.78595 149.133 7.04687C149.734 7.3078 150.237 7.67309 150.642 8.14276C151.06 8.61242 151.367 9.16037 151.562 9.78659C151.771 10.3998 151.869 11.0651 151.856 11.7827C151.856 11.9653 151.85 12.1414 151.837 12.311C151.824 12.4806 151.798 12.6502 151.758 12.8198H144.686C144.725 13.2112 144.836 13.57 145.019 13.8962C145.202 14.2223 145.456 14.4832 145.783 14.6789C146.122 14.8616 146.54 14.9529 147.037 14.9529C147.363 14.9529 147.664 14.9203 147.938 14.8551C148.212 14.7768 148.447 14.6594 148.643 14.5028C148.839 14.3463 148.976 14.1636 149.055 13.9549H151.758C151.589 14.7246 151.269 15.3573 150.798 15.8531C150.341 16.3489 149.786 16.7141 149.133 16.949C148.48 17.1708 147.794 17.2817 147.076 17.2817ZM144.744 10.902H149.231C149.218 10.5498 149.126 10.2236 148.957 9.92357C148.8 9.61046 148.558 9.36258 148.232 9.17994C147.918 8.98424 147.513 8.88639 147.017 8.88639C146.521 8.88639 146.103 8.98424 145.763 9.17994C145.437 9.37563 145.188 9.63003 145.019 9.94314C144.862 10.2432 144.771 10.5628 144.744 10.902Z" fill="black"/>
<path d="M156.17 17.1447L152.546 6.83161H155.543L158.012 14.9138L160.461 6.83161H163.478L159.854 17.1447H156.17Z" fill="black"/>
</svg>
