<svg width="48" height="48" viewBox="0 0 48 48" fill="none" xmlns="http://www.w3.org/2000/svg">
<path d="M47.7654 21.5361C45.9174 15.1143 39.3117 17.4203 35.2327 14.1283C31.3811 11.0197 33.0565 6.35066 30.2647 2.84047C26.2408 -2.21897 17.5084 -0.185644 16.3768 6.29827C15.7157 10.0862 17.8307 13.8181 21.4355 15.1124C23.2292 15.7565 25.1855 15.4858 26.9524 16.2075C30.4851 17.6505 33.0243 21.5071 32.308 25.3455C31.7333 28.4252 29.2628 31.1239 26.2628 31.9984C24.4463 32.528 22.5159 32.3695 20.7459 33.1488C17.2598 34.6839 15.5961 38.697 16.5835 42.3149C18.3917 48.9402 27.1062 49.9612 30.7955 44.3924C32.8889 41.2327 31.6996 37.3287 34.6019 34.4137C38.3972 30.6019 45.3457 32.9881 47.5909 27.0768C47.8877 26.2954 47.9591 25.4815 47.9804 24.6529C48.0067 23.6268 48.0518 22.5315 47.7654 21.5361Z" fill="#0A1017"/>
<path d="M15.3538 21.5361C13.998 16.8244 7.96127 14.8679 3.85086 17.2186C0.660731 19.0431 -0.678144 22.8813 0.329718 26.3845C1.8903 31.8068 8.94741 33.612 13.1002 30.0106C15.424 27.9956 16.1996 24.4752 15.3538 21.5361Z" fill="#0A1017"/>
</svg>
