<svg width="20" height="20" viewBox="0 0 20 20" fill="none" xmlns="http://www.w3.org/2000/svg">
<g clip-path="url(#clip0_1059_1387)">
<path d="M13.2377 12.4654C10.7288 11.5708 8.00114 11.4934 5.44557 12.2443M13.2377 12.4654L12.1615 15.4836C11.976 16.0038 11.4045 16.2688 10.866 16.1464C9.79549 15.9029 8.68742 15.8715 7.60482 16.0539C7.0602 16.1456 6.50466 15.8486 6.34896 15.3187L5.44557 12.2443M13.2377 12.4654L14.6498 8.50525M5.44557 12.2443L4.26025 8.21053M14.6498 8.50525C11.3046 7.31244 7.66769 7.20927 4.26025 8.21053M14.6498 8.50525L15.726 5.48703C15.9115 4.96683 15.6407 4.3923 15.1123 4.23175C11.5164 3.13926 7.69278 3.03079 4.0408 3.91768C3.50411 4.04802 3.20116 4.60627 3.35687 5.13615L4.26025 8.21053" stroke="#8E8E93" stroke-opacity="0.4" stroke-width="1.5"/>
</g>
<defs>
<clipPath id="clip0_1059_1387">
<rect width="20" height="20" fill="white"/>
</clipPath>
</defs>
</svg>
